<?xml version="1.0" encoding="utf-8"?>
<!-- Generator: Adobe Illustrator 16.0.0, SVG Export Plug-In . SVG Version: 6.00 Build 0)  -->
<!DOCTYPE svg PUBLIC "-//W3C//DTD SVG 1.1//EN" "http://www.w3.org/Graphics/SVG/1.1/DTD/svg11.dtd">
<svg version="1.1" id="Layer_1" xmlns="http://www.w3.org/2000/svg" xmlns:xlink="http://www.w3.org/1999/xlink" x="0px" y="0px"
	 width="601.5px" height="338.344px" viewBox="0 0 601.5 338.344" enable-background="new 0 0 601.5 338.344" xml:space="preserve">
<rect x="-0.024" y="-0.056" display="none" fill="#A1A0CF" width="601.743" height="345.08"/>
<g id="Layer_1_copy" display="none">
	<rect x="-74.856" y="530.856" display="inline" fill="#5F64AE" width="2105.897" height="409.479"/>
	<g display="inline">
		<path fill="#3C469D" d="M-255.855,678.771c0-27.5,22.5-50,50-50h865.859c27.5,0,65.91,15.908,85.355,35.354l96.529,96.531
			c19.446,19.443,12.855,35.354-14.645,35.354h-1033.1c-27.5,0-50-22.5-50-50L-255.855,678.771L-255.855,678.771z"/>
	</g>
	<g display="inline">
		<path fill="#2A3276" d="M-74.856,814.265c0-27.5,22.5-50,50-50h1044.127c27.5,0,64.536-14.538,82.308-32.308
			c17.77-17.77,54.808-32.308,82.308-32.308h797.154c27.5,0,50,22.5,50,50v347.104c0,27.5-22.5,50-50,50H-24.856
			c-27.5,0-50-22.5-50-50V814.265z"/>
	</g>
	<g display="inline">
		<rect x="1094.085" y="346.985" fill="#C9CDE8" width="33.293" height="184.225"/>
		<rect x="1127.378" y="346.985" fill="#3C469D" width="33.293" height="184.225"/>
		<polygon fill="#5F64AE" points="1127.378,245.468 1144.009,320.724 1160.638,346.985 1127.378,346.985 1094.118,346.985 
			1110.749,320.724 		"/>
		<circle fill="#5F64AE" cx="1110.73" cy="363.309" r="6.389"/>
		<circle fill="#2A3276" cx="1144.024" cy="363.309" r="6.389"/>
		<rect x="1101.579" y="380.044" fill="#5F64AE" width="18.305" height="6.692"/>
		<rect x="1134.874" y="380.044" fill="#2A3276" width="18.303" height="6.692"/>
		<polygon fill="#2A3276" points="1127.378,346.985 1127.378,245.468 1144.009,320.724 1160.638,346.985 		"/>
	</g>
	<g display="inline">
		<rect x="1149.718" y="294.273" fill="#C9CDE8" width="57.102" height="236.937"/>
		<rect x="1206.817" y="294.273" fill="#5F64AE" width="24.01" height="236.937"/>
		<rect x="1230.827" y="294.273" fill="#3C469D" width="37.104" height="236.937"/>
		<g>
			<rect x="1159.438" y="305.564" fill="#5F64AE" width="37.658" height="9.824"/>
			<rect x="1159.438" y="323.984" fill="#5F64AE" width="37.658" height="9.822"/>
			<rect x="1159.438" y="342.404" fill="#5F64AE" width="37.658" height="9.822"/>
			<rect x="1159.438" y="360.824" fill="#5F64AE" width="37.658" height="9.823"/>
			<rect x="1159.438" y="379.244" fill="#5F64AE" width="37.658" height="9.824"/>
			<rect x="1159.438" y="397.664" fill="#5F64AE" width="37.658" height="9.824"/>
			<rect x="1159.438" y="416.084" fill="#5F64AE" width="37.658" height="9.824"/>
			<rect x="1159.438" y="434.504" fill="#5F64AE" width="37.658" height="9.825"/>
			<rect x="1159.438" y="452.925" fill="#5F64AE" width="37.658" height="9.823"/>
			<rect x="1159.438" y="471.344" fill="#5F64AE" width="37.658" height="9.824"/>
			<rect x="1159.438" y="489.764" fill="#5F64AE" width="37.658" height="9.825"/>
			<rect x="1159.438" y="508.185" fill="#5F64AE" width="37.658" height="9.823"/>
		</g>
		<g>
			<rect x="1237.507" y="305.564" fill="#2A3276" width="23.742" height="9.824"/>
			<rect x="1237.507" y="323.984" fill="#2A3276" width="23.742" height="9.822"/>
			<rect x="1237.507" y="342.404" fill="#2A3276" width="23.742" height="9.822"/>
			<rect x="1237.507" y="360.824" fill="#2A3276" width="23.742" height="9.823"/>
			<rect x="1237.507" y="379.244" fill="#2A3276" width="23.742" height="9.824"/>
			<rect x="1237.507" y="397.664" fill="#2A3276" width="23.742" height="9.824"/>
			<rect x="1237.507" y="416.084" fill="#2A3276" width="23.742" height="9.824"/>
			<rect x="1237.507" y="434.504" fill="#2A3276" width="23.742" height="9.825"/>
			<rect x="1237.507" y="452.925" fill="#2A3276" width="23.742" height="9.823"/>
			<rect x="1237.507" y="471.344" fill="#2A3276" width="23.742" height="9.824"/>
			<rect x="1237.507" y="489.764" fill="#2A3276" width="23.742" height="9.825"/>
			<rect x="1237.507" y="508.185" fill="#2A3276" width="23.742" height="9.823"/>
		</g>
		<g>
			<rect x="1212.479" y="305.564" fill="#3C469D" width="12.688" height="9.824"/>
			<rect x="1212.479" y="323.984" fill="#3C469D" width="12.688" height="9.822"/>
			<rect x="1212.479" y="342.404" fill="#3C469D" width="12.688" height="9.822"/>
			<rect x="1212.479" y="360.824" fill="#3C469D" width="12.688" height="9.823"/>
			<rect x="1212.479" y="379.244" fill="#3C469D" width="12.688" height="9.824"/>
			<rect x="1212.479" y="397.664" fill="#3C469D" width="12.688" height="9.824"/>
			<rect x="1212.479" y="416.084" fill="#3C469D" width="12.688" height="9.824"/>
			<rect x="1212.479" y="434.504" fill="#3C469D" width="12.688" height="9.825"/>
			<rect x="1212.479" y="452.925" fill="#3C469D" width="12.688" height="9.823"/>
			<rect x="1212.479" y="471.344" fill="#3C469D" width="12.688" height="9.824"/>
			<rect x="1212.479" y="489.764" fill="#3C469D" width="12.688" height="9.825"/>
			<rect x="1212.479" y="508.185" fill="#3C469D" width="12.688" height="9.823"/>
		</g>
		<rect x="1167.235" y="269.952" fill="#C9CDE8" width="51.586" height="24.321"/>
		<rect x="1218.821" y="269.952" fill="#3C469D" width="42.428" height="24.321"/>
		<circle fill="#5F64AE" cx="1175.215" cy="288.321" r="2.968"/>
		<circle fill="#5F64AE" cx="1184.067" cy="288.321" r="2.967"/>
		<rect x="1236.667" y="254.346" fill="#3C469D" width="5.373" height="15.606"/>
		<rect x="1245.417" y="245.904" fill="#3C469D" width="5.373" height="24.048"/>
	</g>
	<g display="inline">
		<rect x="680.549" y="263.932" fill="#C9CDE8" width="81.626" height="267.278"/>
		<polygon fill="#3C469D" points="762.175,263.932 808.393,197.194 808.393,531.21 762.175,531.21 		"/>
		<polygon fill="#5F64AE" points="808.393,197.194 762.175,263.932 680.549,263.932 726.768,197.194 		"/>
		<rect x="680.549" y="273.964" fill="#5F64AE" width="81.626" height="9.971"/>
		<rect x="680.549" y="294.112" fill="#5F64AE" width="81.626" height="9.971"/>
		<rect x="680.549" y="314.26" fill="#5F64AE" width="81.626" height="9.973"/>
		<rect x="680.549" y="334.409" fill="#5F64AE" width="81.626" height="9.972"/>
		<rect x="680.549" y="354.557" fill="#5F64AE" width="81.626" height="9.973"/>
		<rect x="680.549" y="374.705" fill="#5F64AE" width="81.626" height="9.971"/>
		<rect x="680.549" y="394.854" fill="#5F64AE" width="81.626" height="9.974"/>
		<rect x="680.549" y="415.002" fill="#5F64AE" width="81.626" height="9.972"/>
		<rect x="680.549" y="435.15" fill="#5F64AE" width="81.626" height="9.972"/>
		<rect x="680.549" y="455.298" fill="#5F64AE" width="81.626" height="9.975"/>
		<rect x="680.549" y="475.447" fill="#5F64AE" width="81.626" height="9.971"/>
		<rect x="680.549" y="495.596" fill="#5F64AE" width="81.626" height="9.973"/>
		<rect x="680.549" y="515.744" fill="#5F64AE" width="81.626" height="9.972"/>
		<rect x="762.175" y="273.964" fill="#2A3276" width="46.217" height="9.971"/>
		<polygon fill="#2A3276" points="808.393,263.932 762.175,263.932 769.08,253.961 808.393,253.961 		"/>
		<polygon fill="#2A3276" points="808.393,243.638 776.229,243.638 783.134,233.667 808.393,233.667 		"/>
		<polygon fill="#2A3276" points="808.393,223.49 790.182,223.49 797.087,213.519 808.393,213.519 		"/>
		<rect x="762.175" y="294.113" fill="#2A3276" width="46.217" height="9.971"/>
		<rect x="762.175" y="314.261" fill="#2A3276" width="46.217" height="9.97"/>
		<rect x="762.175" y="334.409" fill="#2A3276" width="46.217" height="9.972"/>
		<rect x="762.175" y="354.557" fill="#2A3276" width="46.217" height="9.974"/>
		<rect x="762.175" y="374.705" fill="#2A3276" width="46.217" height="9.971"/>
		<rect x="762.175" y="394.854" fill="#2A3276" width="46.217" height="9.974"/>
		<rect x="762.175" y="415.002" fill="#2A3276" width="46.217" height="9.972"/>
		<rect x="762.175" y="435.15" fill="#2A3276" width="46.217" height="9.972"/>
		<rect x="762.175" y="455.298" fill="#2A3276" width="46.217" height="9.975"/>
		<rect x="762.175" y="475.447" fill="#2A3276" width="46.217" height="9.971"/>
		<rect x="762.175" y="495.596" fill="#2A3276" width="46.217" height="9.973"/>
		<rect x="762.175" y="515.744" fill="#2A3276" width="46.217" height="9.972"/>
	</g>
	<g display="inline">
		<polygon fill="#C9CDE8" points="785.75,531.21 785.75,425.288 798.372,425.288 798.372,340.093 826.419,312.046 871.646,312.046 
			899.958,340.093 899.958,531.21 		"/>
		<polygon fill="#5F64AE" points="798.372,340.093 826.419,311.914 854.533,340.093 		"/>
		<rect x="854.533" y="340.093" fill="#3C469D" width="45.426" height="191.117"/>
		<rect x="798.372" y="347.631" fill="#5F64AE" width="56.161" height="7.713"/>
		<rect x="798.372" y="364.478" fill="#5F64AE" width="56.161" height="7.714"/>
		<rect x="798.372" y="381.323" fill="#5F64AE" width="56.161" height="7.713"/>
		<rect x="798.372" y="398.169" fill="#5F64AE" width="56.161" height="7.714"/>
		<rect x="798.372" y="415.016" fill="#5F64AE" width="56.161" height="7.713"/>
		<rect x="785.75" y="431.862" fill="#5F64AE" width="68.783" height="7.713"/>
		<rect x="785.75" y="448.709" fill="#5F64AE" width="68.783" height="7.713"/>
		<rect x="785.75" y="465.556" fill="#5F64AE" width="68.783" height="7.712"/>
		<rect x="785.75" y="482.401" fill="#5F64AE" width="68.783" height="7.713"/>
		<rect x="785.75" y="499.248" fill="#5F64AE" width="68.783" height="7.712"/>
		<rect x="785.75" y="516.094" fill="#5F64AE" width="68.783" height="7.713"/>
		<rect x="854.533" y="347.631" fill="#2A3276" width="45.426" height="7.713"/>
		<rect x="854.533" y="364.478" fill="#2A3276" width="45.426" height="7.714"/>
		<rect x="854.533" y="381.323" fill="#2A3276" width="45.426" height="7.713"/>
		<rect x="854.533" y="398.169" fill="#2A3276" width="45.426" height="7.714"/>
		<rect x="854.533" y="415.016" fill="#2A3276" width="45.426" height="7.713"/>
		<rect x="854.533" y="431.862" fill="#2A3276" width="45.426" height="7.713"/>
		<rect x="854.533" y="448.709" fill="#2A3276" width="45.426" height="7.713"/>
		<rect x="854.533" y="465.556" fill="#2A3276" width="45.426" height="7.712"/>
		<rect x="854.533" y="482.401" fill="#2A3276" width="45.426" height="7.713"/>
		<rect x="854.533" y="499.248" fill="#2A3276" width="45.426" height="7.712"/>
		<rect x="854.533" y="516.094" fill="#2A3276" width="45.426" height="7.713"/>
		<polygon fill="#2A3276" points="900.013,340.093 854.533,340.093 826.386,311.947 871.646,311.947 		"/>
	</g>
	<g display="inline">
		<polygon fill="#2A3276" points="888.97,410.717 942.865,464.611 1024.892,464.611 1024.892,410.717 		"/>
		<polygon fill="#C9CDE8" points="888.97,410.717 888.97,531.21 942.865,531.21 942.865,464.611 		"/>
		<rect x="942.865" y="464.611" fill="#3C469D" width="82.025" height="66.599"/>
		<rect x="896.589" y="451.557" fill="#5F64AE" width="2.62" height="13.283"/>
		<rect x="905.847" y="451.557" fill="#5F64AE" width="2.619" height="13.283"/>
		<rect x="896.51" y="479.536" fill="#5F64AE" width="38.815" height="8.572"/>
		<rect x="896.51" y="496.205" fill="#5F64AE" width="38.815" height="8.573"/>
		<rect x="953.026" y="479.536" fill="#2A3276" width="8.572" height="8.572"/>
		<rect x="953.026" y="496.205" fill="#2A3276" width="8.572" height="8.573"/>
	</g>
	<g display="inline">
		<rect x="990.47" y="400.938" fill="#C9CDE8" width="57.662" height="130.272"/>
		<rect x="1048.132" y="400.938" fill="#3C469D" width="69.465" height="130.272"/>
		<polygon fill="#5F64AE" points="990.47,400.938 1019.218,372.19 1048.132,400.938 		"/>
		<polygon fill="#2A3276" points="1019.218,372.19 1087.247,372.19 1117.597,400.938 1048.132,400.938 		"/>
		<g>
			<rect x="1009.087" y="430.36" fill="#5F64AE" width="2.474" height="12.539"/>
			<rect x="1027.042" y="430.36" fill="#5F64AE" width="2.475" height="12.539"/>
			<rect x="1009.087" y="459.803" fill="#5F64AE" width="2.474" height="12.541"/>
			<rect x="1027.042" y="459.803" fill="#5F64AE" width="2.475" height="12.541"/>
		</g>
		<rect x="1076.458" y="430.36" fill="#2A3276" width="12.813" height="12.813"/>
		<rect x="1076.458" y="459.803" fill="#2A3276" width="12.813" height="12.813"/>
	</g>
	<polygon display="inline" fill="#2A3276" points="645.628,684.944 633.462,684.944 627.295,691.069 629.753,691.069 
		634.712,708.252 637.212,708.252 637.212,764.319 641.878,764.319 641.878,708.252 644.378,708.252 649.503,691.069 
		652.045,691.069 	"/>
	<polygon display="inline" fill="#3C469D" points="744.439,612.38 735.592,612.38 731.107,616.834 732.895,616.834 736.501,629.33 
		738.32,629.33 738.32,670.104 741.712,670.104 741.712,629.33 743.531,629.33 747.257,616.834 749.107,616.834 	"/>
	<polygon display="inline" fill="#5F64AE" points="1284.921,493.704 1279.087,493.704 1276.132,496.641 1277.311,496.641 
		1279.688,504.879 1280.886,504.879 1280.886,531.759 1283.122,531.759 1283.122,504.879 1284.321,504.879 1286.778,496.641 
		1287.997,496.641 	"/>
	<path display="inline" fill="#5F64AE" d="M645.389,500.624c0-5.749-4.66-10.409-10.408-10.409c-5.75,0-10.408,4.66-10.408,10.409
		c0,5.361,4.054,9.772,9.263,10.343v19.892h2.292v-19.892C641.335,510.396,645.389,505.985,645.389,500.624z"/>
	<path display="inline" fill="#5F64AE" d="M665.708,508.922c0-4.645-3.765-8.409-8.409-8.409c-4.644,0-8.409,3.767-8.409,8.409
		c0,4.255,3.162,7.762,7.265,8.322v13.612h2.293v-13.612C662.545,516.684,665.708,513.177,665.708,508.922z"/>
	<path display="inline" fill="#2A3276" d="M1282.063,675.434c0-7.07-5.73-12.806-12.805-12.806s-12.807,5.733-12.807,12.806
		c0,6.598,4.984,12.022,11.396,12.727v24.469h2.82V688.16C1277.077,687.456,1282.063,682.029,1282.063,675.434z"/>
	<path display="inline" fill="#3C469D" d="M793.244,676.625c0-5.714-4.631-10.346-10.346-10.346
		c-5.713,0-10.347,4.632-10.347,10.346c0,5.234,3.892,9.549,8.938,10.238v16.746h2.818v-16.746
		C789.354,686.174,793.244,681.859,793.244,676.625z"/>
</g>
<g display="none">
	
		<radialGradient id="SVGID_1_" cx="-652.1279" cy="-416.4595" r="137.6091" gradientTransform="matrix(1 0 0 1 1128 469)" gradientUnits="userSpaceOnUse">
		<stop  offset="0.1224" style="stop-color:#D9DAEE;stop-opacity:0.95"/>
		<stop  offset="0.2505" style="stop-color:#D9DAEE;stop-opacity:0.8113"/>
		<stop  offset="1" style="stop-color:#D9DAEE;stop-opacity:0"/>
	</radialGradient>
	<circle display="inline" fill="url(#SVGID_1_)" cx="475.872" cy="52.541" r="137.609"/>
	<circle display="inline" fill="#D9DBEE" cx="475.872" cy="52.541" r="20.684"/>
</g>
<rect x="-0.024" fill="#FED1A4" width="601.743" height="173.029"/>
<rect x="-0.024" y="172.918" fill="#D69C63" width="601.743" height="128.333"/>
<path fill="#C17629" d="M263.83,244.939l-30.253-30.253c-6.094-6.094-18.132-11.08-26.751-11.08H0v52.414h259.24
	C267.859,256.019,269.924,251.033,263.83,244.939z"/>
<rect x="342.87" y="115.292" fill="#FBDECA" width="10.435" height="57.737"/>
<rect x="353.305" y="115.292" fill="#C17629" width="10.435" height="57.737"/>
<polygon fill="#D69C63" points="353.305,83.475 358.517,107.061 363.729,115.292 353.305,115.292 342.881,115.292 348.093,107.061 
	"/>
<circle fill="#D69C63" cx="348.087" cy="120.407" r="2.002"/>
<circle fill="#7A411B" cx="358.521" cy="120.407" r="2.002"/>
<rect x="345.219" y="125.652" fill="#D69C63" width="5.737" height="2.097"/>
<rect x="355.654" y="125.652" fill="#7A411B" width="5.735" height="2.097"/>
<polygon fill="#7A411B" points="353.305,115.292 353.305,83.475 358.517,107.061 363.729,115.292 "/>
<rect x="360.306" y="98.771" fill="#FBDECA" width="17.896" height="74.258"/>
<rect x="378.201" y="98.771" fill="#D69C63" width="7.525" height="74.258"/>
<rect x="385.727" y="98.771" fill="#C17629" width="11.628" height="74.258"/>
<rect x="363.353" y="102.31" fill="#D69C63" width="11.802" height="3.079"/>
<rect x="363.353" y="108.083" fill="#D69C63" width="11.802" height="3.079"/>
<rect x="363.353" y="113.856" fill="#D69C63" width="11.802" height="3.078"/>
<rect x="363.353" y="119.628" fill="#D69C63" width="11.802" height="3.079"/>
<rect x="363.353" y="125.402" fill="#D69C63" width="11.802" height="3.079"/>
<rect x="363.353" y="131.174" fill="#D69C63" width="11.802" height="3.079"/>
<rect x="363.353" y="136.948" fill="#D69C63" width="11.802" height="3.079"/>
<rect x="363.353" y="142.72" fill="#D69C63" width="11.802" height="3.08"/>
<rect x="363.353" y="148.494" fill="#D69C63" width="11.802" height="3.079"/>
<rect x="363.353" y="154.266" fill="#D69C63" width="11.802" height="3.079"/>
<rect x="363.353" y="160.04" fill="#D69C63" width="11.802" height="3.079"/>
<rect x="363.353" y="165.813" fill="#D69C63" width="11.802" height="3.079"/>
<rect x="387.819" y="102.31" fill="#7A411B" width="7.441" height="3.079"/>
<rect x="387.819" y="108.083" fill="#7A411B" width="7.441" height="3.079"/>
<rect x="387.819" y="113.856" fill="#7A411B" width="7.441" height="3.078"/>
<rect x="387.819" y="119.628" fill="#7A411B" width="7.441" height="3.079"/>
<rect x="387.819" y="125.402" fill="#7A411B" width="7.441" height="3.079"/>
<rect x="387.819" y="131.174" fill="#7A411B" width="7.441" height="3.079"/>
<rect x="387.819" y="136.948" fill="#7A411B" width="7.441" height="3.079"/>
<rect x="387.819" y="142.72" fill="#7A411B" width="7.441" height="3.08"/>
<rect x="387.819" y="148.494" fill="#7A411B" width="7.441" height="3.079"/>
<rect x="387.819" y="154.266" fill="#7A411B" width="7.441" height="3.079"/>
<rect x="387.819" y="160.04" fill="#7A411B" width="7.441" height="3.079"/>
<rect x="387.819" y="165.813" fill="#7A411B" width="7.441" height="3.079"/>
<rect x="379.976" y="102.31" fill="#C17629" width="3.977" height="3.079"/>
<rect x="379.976" y="108.083" fill="#C17629" width="3.977" height="3.079"/>
<rect x="379.976" y="113.856" fill="#C17629" width="3.977" height="3.078"/>
<rect x="379.976" y="119.628" fill="#C17629" width="3.977" height="3.079"/>
<rect x="379.976" y="125.402" fill="#C17629" width="3.977" height="3.079"/>
<rect x="379.976" y="131.174" fill="#C17629" width="3.977" height="3.079"/>
<rect x="379.976" y="136.948" fill="#C17629" width="3.977" height="3.079"/>
<rect x="379.976" y="142.72" fill="#C17629" width="3.977" height="3.08"/>
<rect x="379.976" y="148.494" fill="#C17629" width="3.977" height="3.079"/>
<rect x="379.976" y="154.266" fill="#C17629" width="3.977" height="3.079"/>
<rect x="379.976" y="160.04" fill="#C17629" width="3.977" height="3.079"/>
<rect x="379.976" y="165.813" fill="#C17629" width="3.977" height="3.079"/>
<rect x="365.796" y="91.149" fill="#FBDECA" width="16.168" height="7.622"/>
<rect x="381.964" y="91.149" fill="#C17629" width="13.297" height="7.622"/>
<circle fill="#D69C63" cx="368.297" cy="96.906" r="0.93"/>
<circle fill="#D69C63" cx="371.071" cy="96.906" r="0.93"/>
<rect x="387.557" y="86.258" fill="#C17629" width="1.684" height="4.891"/>
<rect x="390.299" y="83.612" fill="#C17629" width="1.685" height="7.537"/>
<rect x="213.265" y="89.262" fill="#FBDECA" width="25.582" height="83.767"/>
<polygon fill="#C17629" points="238.847,89.262 253.332,68.346 253.332,173.029 238.847,173.029 "/>
<polygon fill="#D69C63" points="253.332,68.346 238.847,89.262 213.265,89.262 227.75,68.346 "/>
<rect x="213.265" y="92.406" fill="#D69C63" width="25.582" height="3.125"/>
<rect x="213.265" y="98.721" fill="#D69C63" width="25.582" height="3.125"/>
<rect x="213.265" y="105.035" fill="#D69C63" width="25.582" height="3.125"/>
<rect x="213.265" y="111.35" fill="#D69C63" width="25.582" height="3.125"/>
<rect x="213.265" y="117.665" fill="#D69C63" width="25.582" height="3.125"/>
<rect x="213.265" y="123.979" fill="#D69C63" width="25.582" height="3.125"/>
<rect x="213.265" y="130.293" fill="#D69C63" width="25.582" height="3.126"/>
<rect x="213.265" y="136.608" fill="#D69C63" width="25.582" height="3.125"/>
<rect x="213.265" y="142.923" fill="#D69C63" width="25.582" height="3.125"/>
<rect x="213.265" y="149.237" fill="#D69C63" width="25.582" height="3.126"/>
<rect x="213.265" y="155.552" fill="#D69C63" width="25.582" height="3.125"/>
<rect x="213.265" y="161.867" fill="#D69C63" width="25.582" height="3.125"/>
<rect x="213.265" y="168.182" fill="#D69C63" width="25.582" height="3.125"/>
<rect x="238.847" y="92.406" fill="#7A411B" width="14.485" height="3.125"/>
<polygon fill="#7A411B" points="253.332,89.262 238.847,89.262 241.011,86.137 253.332,86.137 "/>
<polygon fill="#7A411B" points="253.332,82.902 243.252,82.902 245.416,79.777 253.332,79.777 "/>
<polygon fill="#7A411B" points="253.332,76.587 247.625,76.587 249.789,73.462 253.332,73.462 "/>
<rect x="238.847" y="98.721" fill="#7A411B" width="14.485" height="3.125"/>
<rect x="238.847" y="105.035" fill="#7A411B" width="14.485" height="3.125"/>
<rect x="238.847" y="111.35" fill="#7A411B" width="14.485" height="3.125"/>
<rect x="238.847" y="117.665" fill="#7A411B" width="14.485" height="3.125"/>
<rect x="238.847" y="123.979" fill="#7A411B" width="14.485" height="3.125"/>
<rect x="238.847" y="130.293" fill="#7A411B" width="14.485" height="3.126"/>
<rect x="238.847" y="136.608" fill="#7A411B" width="14.485" height="3.125"/>
<rect x="238.847" y="142.923" fill="#7A411B" width="14.485" height="3.125"/>
<rect x="238.847" y="149.237" fill="#7A411B" width="14.485" height="3.126"/>
<rect x="238.847" y="155.552" fill="#7A411B" width="14.485" height="3.125"/>
<rect x="238.847" y="161.867" fill="#7A411B" width="14.485" height="3.125"/>
<rect x="238.847" y="168.182" fill="#7A411B" width="14.485" height="3.125"/>
<polygon fill="#FBDECA" points="246.236,173.029 246.236,139.832 250.191,139.832 250.191,113.131 258.982,104.341 273.156,104.341 
	282.029,113.131 282.029,173.029 "/>
<polygon fill="#D69C63" points="250.191,113.131 258.982,104.3 267.793,113.131 "/>
<rect x="267.793" y="113.131" fill="#C17629" width="14.237" height="59.897"/>
<rect x="250.191" y="115.494" fill="#D69C63" width="17.602" height="2.417"/>
<rect x="250.191" y="120.774" fill="#D69C63" width="17.602" height="2.417"/>
<rect x="250.191" y="126.053" fill="#D69C63" width="17.602" height="2.417"/>
<rect x="250.191" y="131.333" fill="#D69C63" width="17.602" height="2.418"/>
<rect x="250.191" y="136.613" fill="#D69C63" width="17.602" height="2.417"/>
<rect x="246.236" y="141.893" fill="#D69C63" width="21.557" height="2.417"/>
<rect x="246.236" y="147.172" fill="#D69C63" width="21.557" height="2.417"/>
<rect x="246.236" y="152.452" fill="#D69C63" width="21.557" height="2.417"/>
<rect x="246.236" y="157.732" fill="#D69C63" width="21.557" height="2.417"/>
<rect x="246.236" y="163.012" fill="#D69C63" width="21.557" height="2.417"/>
<rect x="246.236" y="168.292" fill="#D69C63" width="21.557" height="2.417"/>
<rect x="267.793" y="115.494" fill="#7A411B" width="14.237" height="2.417"/>
<rect x="267.793" y="120.774" fill="#7A411B" width="14.237" height="2.417"/>
<rect x="267.793" y="126.053" fill="#7A411B" width="14.237" height="2.417"/>
<rect x="267.793" y="131.333" fill="#7A411B" width="14.237" height="2.418"/>
<rect x="267.793" y="136.613" fill="#7A411B" width="14.237" height="2.417"/>
<rect x="267.793" y="141.893" fill="#7A411B" width="14.237" height="2.417"/>
<rect x="267.793" y="147.172" fill="#7A411B" width="14.237" height="2.417"/>
<rect x="267.793" y="152.452" fill="#7A411B" width="14.237" height="2.417"/>
<rect x="267.793" y="157.732" fill="#7A411B" width="14.237" height="2.417"/>
<rect x="267.793" y="163.012" fill="#7A411B" width="14.237" height="2.417"/>
<rect x="267.793" y="168.292" fill="#7A411B" width="14.237" height="2.417"/>
<polygon fill="#7A411B" points="282.047,113.131 267.793,113.131 258.971,104.31 273.156,104.31 "/>
<polygon fill="#7A411B" points="278.585,135.265 295.477,152.156 321.185,152.156 321.185,135.265 "/>
<polygon fill="#FBDECA" points="278.585,135.265 278.585,173.029 295.477,173.029 295.477,152.156 "/>
<rect x="295.477" y="152.156" fill="#C17629" width="25.708" height="20.873"/>
<rect x="280.974" y="148.065" fill="#D69C63" width="0.821" height="4.163"/>
<rect x="283.875" y="148.065" fill="#D69C63" width="0.821" height="4.163"/>
<rect x="280.949" y="156.834" fill="#D69C63" width="12.165" height="2.687"/>
<rect x="280.949" y="162.058" fill="#D69C63" width="12.165" height="2.687"/>
<rect x="298.662" y="156.834" fill="#7A411B" width="2.687" height="2.687"/>
<rect x="298.662" y="162.058" fill="#7A411B" width="2.687" height="2.687"/>
<rect x="310.396" y="132.201" fill="#FBDECA" width="18.072" height="40.828"/>
<rect x="328.468" y="132.201" fill="#C17629" width="21.771" height="40.828"/>
<polygon fill="#D69C63" points="310.396,132.201 319.406,123.191 328.468,132.201 "/>
<polygon fill="#7A411B" points="319.406,123.191 340.728,123.191 350.239,132.201 328.468,132.201 "/>
<rect x="316.231" y="141.422" fill="#D69C63" width="0.775" height="3.93"/>
<rect x="321.858" y="141.422" fill="#D69C63" width="0.776" height="3.93"/>
<rect x="316.231" y="150.649" fill="#D69C63" width="0.775" height="3.93"/>
<rect x="321.858" y="150.649" fill="#D69C63" width="0.776" height="3.93"/>
<rect x="337.346" y="141.422" fill="#7A411B" width="4.016" height="4.016"/>
<rect x="337.346" y="150.649" fill="#7A411B" width="4.016" height="4.016"/>
<radialGradient id="SVGID_2_" cx="-984.6597" cy="-416.4595" r="137.6089" gradientTransform="matrix(1 0 0 1 1128 469)" gradientUnits="userSpaceOnUse">
	<stop  offset="0.1224" style="stop-color:#FEEADC;stop-opacity:0.95"/>
	<stop  offset="0.2505" style="stop-color:#FEEADC;stop-opacity:0.8113"/>
	<stop  offset="1" style="stop-color:#FEEADC;stop-opacity:0"/>
</radialGradient>
<circle fill="url(#SVGID_2_)" cx="143.34" cy="52.541" r="137.609"/>
<circle fill="#FFFFFF" cx="143.34" cy="52.541" r="20.684"/>
<path fill="#7A411B" d="M-0.024,338.344h601.743V225.819H371.015c-8.618,0-20.227,4.557-25.796,10.126
	c-5.569,5.568-17.177,10.125-25.795,10.125H-0.024V338.344z"/>
</svg>
