<?xml version="1.0" encoding="utf-8"?>
<!-- Generator: Adobe Illustrator 16.0.0, SVG Export Plug-In . SVG Version: 6.00 Build 0)  -->
<!DOCTYPE svg PUBLIC "-//W3C//DTD SVG 1.1//EN" "http://www.w3.org/Graphics/SVG/1.1/DTD/svg11.dtd">
<svg version="1.1" id="Layer_1" xmlns="http://www.w3.org/2000/svg" xmlns:xlink="http://www.w3.org/1999/xlink" x="0px" y="0px"
	 width="401.764px" height="392.805px" viewBox="0 0 401.764 392.805" enable-background="new 0 0 401.764 392.805"
	 xml:space="preserve">
<g>
	<path fill="#FFFFFF" d="M330.56,213.074c2.724-0.383,4.951-2.945,4.951-5.695v-21.967c0-2.75-2.228-5.313-4.951-5.694
		l-35.697-5.007c-2.725-0.382-5.653-2.832-6.51-5.445l-7.305-17.674c-1.25-2.45-0.917-6.251,0.738-8.447l21.701-28.785
		c1.654-2.196,1.419-5.583-0.526-7.528L287.438,91.31c-1.945-1.945-5.332-2.181-7.528-0.526l-28.785,21.701
		c-2.196,1.655-5.997,1.987-8.447,0.738l-17.674-7.304c-2.612-0.857-5.063-3.787-5.444-6.51l-5.008-35.697
		c-0.382-2.724-2.943-4.952-5.693-4.952h-21.967c-2.75,0-5.313,2.228-5.695,4.952l-5.006,35.684
		c-0.382,2.724-2.833,5.654-5.445,6.513l-17.677,7.312c-2.449,1.251-6.25,0.92-8.445-0.735l-28.785-21.701
		c-2.196-1.655-5.584-1.419-7.529,0.525l-15.533,15.524c-1.945,1.944-2.182,5.331-0.526,7.526l21.711,28.787
		c1.656,2.195,1.987,5.996,0.736,8.444l-7.314,17.676c-0.857,2.613-3.787,5.063-6.51,5.445l-35.697,5.007
		c-2.724,0.382-4.952,2.944-4.952,5.694v21.967c0,2.75,2.228,5.313,4.952,5.695l35.684,5.006c2.724,0.382,5.654,2.833,6.513,5.444
		l7.313,17.688c1.25,2.449,0.918,6.25-0.737,8.445L92.25,278.432c-1.656,2.196-1.42,5.584,0.525,7.528l15.535,15.535
		c1.945,1.944,5.332,2.181,7.528,0.524l28.773-21.698c2.196-1.656,5.996-1.988,8.445-0.737l17.688,7.313
		c2.612,0.858,5.063,3.789,5.445,6.514l5.006,35.685c0.382,2.725,2.945,4.952,5.695,4.952h21.966c2.75,0,5.313-2.228,5.694-4.952
		l5.007-35.696c0.383-2.725,2.832-5.653,5.445-6.51l17.676-7.314c2.448-1.251,6.248-0.92,8.443,0.736l28.787,21.711
		c2.195,1.655,5.582,1.418,7.525-0.526l15.524-15.533c1.944-1.944,2.181-5.333,0.524-7.528l-21.7-28.785
		c-1.655-2.196-1.986-5.998-0.735-8.445l7.311-17.676c0.859-2.612,3.791-5.063,6.514-5.445L330.56,213.074z M197.868,243.193
		c-25.842,0-46.791-20.949-46.791-46.792c0-25.842,20.948-46.791,46.791-46.791c25.842,0,46.791,20.949,46.791,46.791
		C244.659,222.244,223.71,243.193,197.868,243.193z"/>
</g>
</svg>
