<?xml version="1.0" encoding="utf-8"?>
<!-- Generator: Adobe Illustrator 16.0.0, SVG Export Plug-In . SVG Version: 6.00 Build 0)  -->
<!DOCTYPE svg PUBLIC "-//W3C//DTD SVG 1.1//EN" "http://www.w3.org/Graphics/SVG/1.1/DTD/svg11.dtd">
<svg version="1.1" id="Layer_1" xmlns="http://www.w3.org/2000/svg" xmlns:xlink="http://www.w3.org/1999/xlink" x="0px" y="0px"
	 width="238.459px" height="238.768px" viewBox="0 0 238.459 238.768" enable-background="new 0 0 238.459 238.768"
	 xml:space="preserve">
<g>
	<path fill="#FFFFFF" d="M107.681,47.923c4.874,0,8.823-3.962,8.823-8.834V27.487c0-4.878-3.95-8.829-8.823-8.829
		c-4.879,0-8.828,3.951-8.828,8.829v11.602C98.854,43.961,102.802,47.923,107.681,47.923z"/>
	<path fill="#FFFFFF" d="M169.283,73.425c2.254,0,4.518-0.855,6.239-2.583l8.201-8.196c3.449-3.45,3.449-9.039,0-12.484
		c-3.445-3.445-9.04-3.445-12.479,0l-8.207,8.201c-3.445,3.451-3.445,9.034,0,12.479C164.765,72.57,167.021,73.425,169.283,73.425z"
		/>
	<path fill="#FFFFFF" d="M29.395,126.21c0-4.878-3.951-8.831-8.83-8.831H8.97c-4.88,0-8.83,3.953-8.83,8.831
		c0,4.872,3.95,8.823,8.83,8.823h11.594C25.444,135.033,29.395,131.082,29.395,126.21z"/>
	<path fill="#FFFFFF" d="M39.835,70.848c1.722,1.728,3.983,2.583,6.239,2.583c2.26,0,4.528-0.854,6.245-2.583
		c3.45-3.445,3.45-9.035,0-12.485l-8.201-8.201c-3.445-3.445-9.04-3.445-12.48,0c-3.451,3.451-3.451,9.04,0,12.484L39.835,70.848z"
		/>
	<path fill="#FFFFFF" d="M201.605,136.836c-0.043-0.607-0.106-1.208-0.172-1.81h4.961c4.877,0,8.826-3.949,8.826-8.827
		c0-4.873-3.949-8.826-8.826-8.826h-10.495c-8.116-14.858-23.893-24.962-41.986-24.962c-3.856,0-7.628,0.493-11.268,1.381
		c-8.721-9.402-21.159-15.31-34.964-15.31c-26.313,0-47.723,21.407-47.723,47.722c0,5.813,1.052,11.383,2.963,16.539
		c-0.951,2.868-1.573,5.883-1.818,9.003c-1.143-0.118-2.292-0.174-3.446-0.174c-18.902,0-34.274,15.373-34.274,34.269
		c0,18.896,15.372,34.27,34.274,34.27h138.869c23.045,0,41.792-18.746,41.792-41.791
		C238.318,156.992,222.259,139.35,201.605,136.836z M107.681,95.083c6.957,0,13.379,2.306,18.568,6.179
		c-6.182,4.392-11.329,10.244-14.881,17.166c-3.858-1.294-7.91-1.949-12.1-1.949c-8.454,0-16.272,2.764-22.614,7.424
		C77.838,107.817,91.298,95.083,107.681,95.083z M196.526,200.699H57.658c-8.201,0-14.869-6.665-14.869-14.858
		c0-8.195,6.668-14.862,14.869-14.862c3.749,0,13.87,1.043,17.457,1.451l7.794,0.876l-1.271-7.747
		c-0.477-2.932-1.242-8.457-1.242-10.799c0-10.413,8.467-18.879,18.873-18.879c4.172,0,8.148,1.356,11.479,3.926l12.169,9.402
		l3.238-15.026c2.809-12.963,14.479-22.371,27.758-22.371c15.663,0,28.402,12.74,28.402,28.403c0,1.561-0.141,3.186-0.418,4.821
		l-2.28,13.345l13.364-2.132c1.307-0.204,2.472-0.313,3.545-0.313c12.345,0,22.387,10.04,22.387,22.384
		C218.913,190.658,208.871,200.699,196.526,200.699z"/>
</g>
</svg>
