<?xml version="1.0" encoding="utf-8"?>
<!-- Generator: Adobe Illustrator 16.0.0, SVG Export Plug-In . SVG Version: 6.00 Build 0)  -->
<!DOCTYPE svg PUBLIC "-//W3C//DTD SVG 1.1//EN" "http://www.w3.org/Graphics/SVG/1.1/DTD/svg11.dtd">
<svg version="1.1" id="Layer_1" xmlns="http://www.w3.org/2000/svg" xmlns:xlink="http://www.w3.org/1999/xlink" x="0px" y="0px"
	 width="238.459px" height="238.768px" viewBox="0 0 238.459 238.768" enable-background="new 0 0 238.459 238.768"
	 xml:space="preserve">
<g>
	<path fill="#FFFFFF" d="M119.229,66.474c-29.174,0-52.91,23.735-52.91,52.91s23.735,52.91,52.91,52.91s52.91-23.735,52.91-52.91
		S148.404,66.474,119.229,66.474z M119.229,153.887c-19.025,0-34.503-15.478-34.503-34.503s15.478-34.503,34.503-34.503
		s34.503,15.478,34.503,34.503S138.255,153.887,119.229,153.887z"/>
	<path fill="#FFFFFF" d="M119.229,32.593c5.402,0,9.782-4.392,9.782-9.794V9.937c0-5.409-4.38-9.789-9.782-9.789
		c-5.409,0-9.789,4.38-9.789,9.789v12.862C109.441,28.201,113.821,32.593,119.229,32.593z"/>
	<path fill="#FFFFFF" d="M187.527,60.869c2.501,0,5.008-0.949,6.918-2.865l9.092-9.086c3.826-3.826,3.826-10.022,0-13.842
		c-3.819-3.819-10.022-3.819-13.835,0l-9.099,9.092c-3.819,3.825-3.819,10.016,0,13.835C182.519,59.92,185.02,60.869,187.527,60.869
		z"/>
	<path fill="#FFFFFF" d="M228.671,109.595h-12.856c-5.409,0-9.789,4.38-9.789,9.782c0,5.409,4.38,9.789,9.789,9.789h12.856
		c5.408,0,9.788-4.38,9.788-9.789C238.459,113.975,234.079,109.595,228.671,109.595z"/>
	<path fill="#FFFFFF" d="M194.451,180.757c-3.819-3.825-10.022-3.825-13.848,0c-3.819,3.819-3.819,10.017,0,13.842l9.099,9.092
		c1.91,1.91,4.417,2.865,6.918,2.865c2.507,0,5.014-0.955,6.917-2.865c3.826-3.825,3.826-10.022,0-13.842L194.451,180.757z"/>
	<path fill="#FFFFFF" d="M119.236,206.174c-5.409,0-9.789,4.392-9.789,9.794v12.862c0,5.409,4.38,9.789,9.789,9.789
		c5.402,0,9.782-4.38,9.782-9.789v-12.862C129.018,210.566,124.638,206.174,119.236,206.174z"/>
	<path fill="#FFFFFF" d="M44.02,180.764l-9.092,9.092c-3.825,3.819-3.825,10.016-0.006,13.835c1.909,1.916,4.417,2.871,6.924,2.871
		c2.501,0,5.008-0.955,6.918-2.871l9.092-9.092c3.825-3.813,3.825-10.01,0.006-13.835C54.037,176.938,47.839,176.932,44.02,180.764z
		"/>
	<path fill="#FFFFFF" d="M22.645,109.602H9.788c-5.408,0-9.788,4.38-9.788,9.789c0,5.402,4.38,9.782,9.788,9.782h12.856
		c5.409,0,9.789-4.38,9.789-9.782C32.433,113.981,28.053,109.602,22.645,109.602z"/>
	<path fill="#FFFFFF" d="M44.008,58.01c1.91,1.916,4.417,2.864,6.918,2.864c2.507,0,5.021-0.949,6.924-2.864
		c3.826-3.819,3.826-10.017,0-13.842l-9.092-9.092c-3.819-3.819-10.022-3.819-13.835,0c-3.826,3.825-3.826,10.022,0,13.842
		L44.008,58.01z"/>
</g>
</svg>
