<?xml version="1.0" encoding="utf-8"?>
<!-- Generator: Adobe Illustrator 16.0.0, SVG Export Plug-In . SVG Version: 6.00 Build 0)  -->
<!DOCTYPE svg PUBLIC "-//W3C//DTD SVG 1.1//EN" "http://www.w3.org/Graphics/SVG/1.1/DTD/svg11.dtd">
<svg version="1.1" id="Layer_1" xmlns="http://www.w3.org/2000/svg" xmlns:xlink="http://www.w3.org/1999/xlink" x="0px" y="0px"
	 width="238.459px" height="238.768px" viewBox="0 0 238.459 238.768" enable-background="new 0 0 238.459 238.768"
	 xml:space="preserve">
<g>
	<path fill="#FFFFFF" d="M97.758,43.445c4.434,0,8.028-3.605,8.028-8.039V24.85c0-4.439-3.594-8.034-8.028-8.034
		c-4.439,0-8.033,3.595-8.033,8.034v10.556C89.725,39.839,93.318,43.445,97.758,43.445z"/>
	<path fill="#FFFFFF" d="M153.81,66.649c2.051,0,4.11-0.777,5.678-2.35l7.462-7.458c3.139-3.14,3.139-8.225,0-11.359
		c-3.135-3.135-8.226-3.135-11.354,0l-7.468,7.462c-3.135,3.14-3.135,8.221,0,11.355C149.698,65.871,151.752,66.649,153.81,66.649z"
		/>
	<path fill="#FFFFFF" d="M18.49,106.643H7.94c-4.44,0-8.034,3.597-8.034,8.035c0,4.434,3.594,8.028,8.034,8.028h10.55
		c4.439,0,8.034-3.595,8.034-8.028C26.524,110.24,22.929,106.643,18.49,106.643z"/>
	<path fill="#FFFFFF" d="M36.024,64.304c1.566,1.572,3.624,2.35,5.677,2.35c2.057,0,4.12-0.777,5.683-2.35
		c3.139-3.135,3.139-8.221,0-11.36l-7.462-7.462c-3.135-3.135-8.225-3.135-11.355,0c-3.14,3.14-3.14,8.226,0,11.359L36.024,64.304z"
		/>
	<path fill="#FFFFFF" d="M205.054,146.181c-0.71-10.109-4.898-19.271-11.362-26.311c1.193-1.401,1.917-3.215,1.917-5.202
		c0-4.434-3.594-8.03-8.031-8.03h-10.552c-1.237,0-2.405,0.288-3.452,0.788c-3.789-1.081-7.784-1.668-11.915-1.668
		c-7.37,0-14.428,1.887-20.645,5.25c-1.868-22.233-20.549-39.758-43.256-39.758c-23.943,0-43.423,19.479-43.423,43.423
		c0,16.949,9.764,31.654,23.958,38.803c-0.543,2.025-0.913,4.12-1.082,6.271c-1.04-0.107-2.085-0.158-3.136-0.158
		c-9.851,0-18.642,4.594-24.361,11.745c0.17-2.252-0.6-4.563-2.321-6.286c-3.14-3.139-8.225-3.145-11.36,0l-7.462,7.461
		c-3.14,3.137-3.14,8.223-0.005,11.355c1.567,1.572,3.624,2.355,5.682,2.355c2.053,0,4.11-0.783,5.678-2.355l5.578-5.577
		c-1.678,3.825-2.616,8.046-2.616,12.483c0,17.193,13.988,31.182,31.187,31.182h126.357c20.969,0,38.026-17.057,38.026-38.025
		C238.459,164.521,223.847,148.468,205.054,146.181z M69.441,114.673c0-15.612,12.704-28.317,28.317-28.317
		s28.316,12.705,28.316,28.317c0,5.297-1.47,10.256-4.013,14.501c-3.246-0.991-6.629-1.517-10.125-1.517
		c-10.679,0-20.246,4.838-26.641,12.43C75.915,135.469,69.441,125.814,69.441,114.673z M200.433,204.29H74.075
		c-7.462,0-13.529-6.064-13.529-13.52c0-7.457,6.067-13.523,13.529-13.523c3.411,0,12.62,0.949,15.884,1.32l7.092,0.797
		l-1.156-7.049c-0.434-2.668-1.13-7.695-1.13-9.826c0-9.475,7.705-17.178,17.172-17.178c3.796,0,7.414,1.234,10.445,3.572
		l11.073,8.555l2.946-13.672c2.556-11.795,13.175-20.355,25.257-20.355c14.252,0,25.844,11.592,25.844,25.844
		c0,1.42-0.128,2.898-0.381,4.387l-2.074,12.143l12.16-1.939c1.188-0.186,2.249-0.285,3.226-0.285
		c11.232,0,20.369,9.135,20.369,20.367C220.802,195.154,211.665,204.29,200.433,204.29z"/>
</g>
</svg>
