<?xml version="1.0" encoding="utf-8"?>
<!-- Generator: Adobe Illustrator 16.0.0, SVG Export Plug-In . SVG Version: 6.00 Build 0)  -->
<!DOCTYPE svg PUBLIC "-//W3C//DTD SVG 1.1//EN" "http://www.w3.org/Graphics/SVG/1.1/DTD/svg11.dtd">
<svg version="1.1" id="Layer_1" xmlns="http://www.w3.org/2000/svg" xmlns:xlink="http://www.w3.org/1999/xlink" x="0px" y="0px"
	 width="238.459px" height="238.768px" viewBox="0 0 238.459 238.768" enable-background="new 0 0 238.459 238.768"
	 xml:space="preserve">
<g>
	<path fill="#FFFFFF" d="M197.714,49.284C195.782,21.787,172.792,0,144.806,0c-20.029,0-38.21,11.351-47.198,28.862
		c-4.281-1.436-8.774-2.163-13.423-2.163c-22.292,0-40.625,17.266-42.337,39.124c-1.266-0.128-2.543-0.193-3.824-0.193
		C17.058,65.63,0,82.684,0,103.646c0,20.962,17.058,38.017,38.023,38.017H192.08c25.564,0,46.361-20.794,46.361-46.36
		C238.441,71.643,220.627,52.071,197.714,49.284z M192.08,120.128H38.023c-9.094,0-16.495-7.391-16.495-16.482
		c0-9.09,7.401-16.488,16.495-16.488c4.162,0,15.387,1.159,19.363,1.61l8.652,0.972l-1.41-8.595
		c-0.535-3.251-1.381-9.38-1.381-11.981c0-11.55,9.393-20.943,20.937-20.943c4.629,0,9.039,1.506,12.734,4.359l13.5,10.429
		l3.592-16.668c3.117-14.383,16.065-24.819,30.794-24.819c17.376,0,31.508,14.132,31.508,31.508c0,1.732-0.155,3.535-0.463,5.35
		l-2.53,14.802l14.826-2.363c1.448-0.226,2.743-0.347,3.934-0.347c13.694,0,24.832,11.138,24.832,24.831
		C216.912,108.99,205.774,120.128,192.08,120.128z"/>
	<path fill="#FFFFFF" d="M71.077,180.04c4.197-4.199,4.197-11.022-0.006-15.228c-4.076-4.063-11.174-4.036-15.214,0.007
		l-12.524,12.517c-4.185,4.203-4.182,11.028,0.009,15.22c2.029,2.027,4.732,3.147,7.61,3.147c2.877,0,5.582-1.12,7.61-3.147
		L71.077,180.04z"/>
	<path fill="#FFFFFF" d="M118.776,180.053c2.041-2.035,3.168-4.746,3.168-7.623c0-2.878-1.127-5.588-3.163-7.61
		c-4.074-4.081-11.156-4.069-15.219,0l-12.522,12.517c-4.191,4.203-4.185,11.028,0.026,15.238c2.034,2.016,4.725,3.129,7.59,3.129
		c2.878,0,5.582-1.12,7.609-3.147L118.776,180.053z"/>
	<path fill="#FFFFFF" d="M151.27,164.82l-12.535,12.529c-4.165,4.197-4.159,11.016,0.039,15.226
		c2.034,2.016,4.731,3.129,7.596,3.129c2.858,0,5.558-1.113,7.61-3.147l12.504-12.511c2.039-2.027,3.16-4.738,3.16-7.615
		c0-2.878-1.121-5.588-3.143-7.604C162.438,160.764,155.351,160.744,151.27,164.82z"/>
	<path fill="#FFFFFF" d="M115.654,207.877l-12.509,12.518c-4.191,4.19-4.198,11.015,0.038,15.264
		c2.035,2.002,4.727,3.109,7.578,3.109c2.838,0,5.531-1.107,7.603-3.147l12.516-12.517c4.191-4.19,4.198-11.015,0-15.227
		C126.811,203.809,119.735,203.809,115.654,207.877z"/>
	<path fill="#FFFFFF" d="M70.613,207.877L58.107,220.38c-2.042,2.035-3.164,4.738-3.167,7.61c-0.003,2.884,1.117,5.588,3.177,7.647
		c2.031,2.017,4.729,3.13,7.59,3.13c2.859,0,5.557-1.113,7.61-3.147l12.515-12.517c4.191-4.19,4.198-11.015-0.006-15.232
		C81.751,203.809,74.65,203.828,70.613,207.877z"/>
</g>
</svg>
