<?xml version="1.0" encoding="utf-8"?>
<!-- Generator: Adobe Illustrator 16.0.0, SVG Export Plug-In . SVG Version: 6.00 Build 0)  -->
<!DOCTYPE svg PUBLIC "-//W3C//DTD SVG 1.1//EN" "http://www.w3.org/Graphics/SVG/1.1/DTD/svg11.dtd">
<svg version="1.1" id="Layer_1" xmlns="http://www.w3.org/2000/svg" xmlns:xlink="http://www.w3.org/1999/xlink" x="0px" y="0px"
	 width="238.459px" height="238.768px" viewBox="0 0 238.459 238.768" enable-background="new 0 0 238.459 238.768"
	 xml:space="preserve">
<g>
	<path fill="#FFFFFF" d="M101.797,45.239c4.613,0,8.351-3.75,8.351-8.362V25.895c0-4.618-3.738-8.358-8.351-8.358
		c-4.619,0-8.356,3.74-8.356,8.358v10.981C93.44,41.489,97.178,45.239,101.797,45.239z"/>
	<path fill="#FFFFFF" d="M160.107,69.378c2.134,0,4.276-0.809,5.907-2.444l7.763-7.759c3.265-3.266,3.265-8.556,0-11.816
		c-3.262-3.262-8.558-3.262-11.813,0l-7.769,7.763c-3.262,3.266-3.262,8.551,0,11.813C155.831,68.57,157.967,69.378,160.107,69.378z
		"/>
	<path fill="#FFFFFF" d="M19.334,110.985H8.358c-4.619,0-8.358,3.741-8.358,8.359c0,4.612,3.739,8.352,8.358,8.352h10.976
		c4.618,0,8.358-3.739,8.358-8.352C27.692,114.726,23.952,110.985,19.334,110.985z"/>
	<path fill="#FFFFFF" d="M37.574,66.939c1.63,1.636,3.771,2.444,5.906,2.444c2.14,0,4.286-0.809,5.912-2.444
		c3.266-3.261,3.266-8.552,0-11.817l-7.763-7.763c-3.261-3.262-8.557-3.262-11.813,0c-3.266,3.266-3.266,8.557,0,11.816
		L37.574,66.939z"/>
	<path fill="#FFFFFF" d="M203.707,142.406c-0.397-5.66-1.85-11.031-4.146-15.932c2.413-1.465,4.029-4.109,4.029-7.14
		c0-4.613-3.738-8.354-8.354-8.354h-7.578c-7.873-6.625-18.024-10.626-29.096-10.626c-5.106,0-10.066,0.882-14.725,2.493
		c-6.603-16.773-22.952-28.682-42.041-28.682c-24.908,0-45.174,20.264-45.174,45.173c0,13.136,5.648,24.966,14.628,33.226
		c-0.248,1.297-0.435,2.614-0.54,3.955c-1.082-0.111-2.169-0.164-3.262-0.164c-10.706,0-20.212,5.213-26.125,13.23
		c-1.37,0.366-2.666,1.081-3.74,2.158l-7.763,7.762c-3.267,3.264-3.267,8.555-0.005,11.813c1.543,1.548,3.543,2.352,5.568,2.434
		c2.395,15.541,15.859,27.479,32.065,27.479h131.45c21.814,0,39.56-17.744,39.56-39.559
		C238.459,161.485,223.258,144.785,203.707,142.406z M72.338,119.338c0-16.241,13.216-29.458,29.458-29.458
		c13.199,0,24.399,8.729,28.134,20.716c-4.767,3.896-8.759,8.768-11.641,14.384c-3.652-1.226-7.487-1.845-11.453-1.845
		c-11.573,0-21.889,5.461-28.528,13.934C74.571,132.131,72.338,125.993,72.338,119.338z M198.899,202.858H67.449
		c-7.763,0-14.075-6.309-14.075-14.064c0-7.758,6.312-14.068,14.075-14.068c3.548,0,13.128,0.987,16.524,1.373l7.378,0.829
		l-1.203-7.333c-0.451-2.775-1.176-8.006-1.176-10.223c0-9.856,8.015-17.869,17.865-17.869c3.949,0,7.712,1.283,10.866,3.716
		l11.52,8.899l3.065-14.223c2.658-12.271,13.705-21.176,26.274-21.176c14.826,0,26.886,12.059,26.886,26.885
		c0,1.478-0.134,3.016-0.396,4.563l-2.158,12.632l12.65-2.018c1.236-0.192,2.34-0.296,3.355-0.296
		c11.686,0,21.19,9.503,21.19,21.188C220.09,193.353,210.585,202.858,198.899,202.858z"/>
</g>
</svg>
